<?xml version="1.0" encoding="utf-8"?>
<!-- Generator: Adobe Illustrator 24.1.0, SVG Export Plug-In . SVG Version: 6.00 Build 0)  -->
<svg version="1.1" xmlns="http://www.w3.org/2000/svg" xmlns:xlink="http://www.w3.org/1999/xlink" x="0px" y="0px"
	 viewBox="0 0 123.2 100" style="enable-background:new 0 0 123.2 100;" xml:space="preserve">
<style type="text/css">
	.st0{fill:url(#SVGID_1_);}
	.st1{fill:#FFFFFF;stroke:#EE7EA0;stroke-linecap:round;stroke-linejoin:round;}
</style>
<g id="Layer_1">
	
		<radialGradient id="SVGID_1_" cx="76.2006" cy="44.8661" r="55.9944" fx="89.3671" fy="47.3615" gradientTransform="matrix(-0.5053 0.863 -0.9072 -0.5311 155.4031 2.9382)" gradientUnits="userSpaceOnUse">
		<stop  offset="0" style="stop-color:#EE7EA0"/>
		<stop  offset="1" style="stop-color:#EE56A0"/>
	</radialGradient>
	<circle class="st0" cx="73.2" cy="50.2" r="48.9"/>
</g>
<g id="Layer_2">
	<g>
		<g>
			<path class="st1" d="M43.9,41.3H49c1.4,0,2.5,1.1,2.5,2.4v28.9c0,1.3-1.1,2.4-2.5,2.4h-5.1"/>
			<path class="st1" d="M51.5,67.8c18.7,9,17.8,7.8,33.8,7.8c6.7,0,10.1-4.1,12.1-10.2v0l4.9-15.4v0c0.8-2.5-0.7-5.2-3.4-6
				c-0.5-0.1-1-0.2-1.4-0.2H84.9c-2.8,0-5.1-2.2-5.1-4.8c0-0.4,0.1-0.8,0.2-1.2l2.2-8.1c0.6-2.2-0.8-4.5-3.1-5
				c-1.8-0.4-3.6,0.2-4.7,1.6L62,42.8c-1,1.3-2.5,2-4.2,2h-6.3"/>
		</g>
	</g>
</g>
</svg>
