<?xml version="1.0" encoding="utf-8"?>
<!-- Generator: Adobe Illustrator 24.1.0, SVG Export Plug-In . SVG Version: 6.00 Build 0)  -->
<svg version="1.1" id="Layer_1" xmlns="http://www.w3.org/2000/svg" xmlns:xlink="http://www.w3.org/1999/xlink" x="0px" y="0px"
	 viewBox="0 0 24 24" style="enable-background:new 0 0 24 24;" xml:space="preserve">
<style type="text/css">
	.st0{fill:#EE7EA0;}
</style>
<path class="st0" d="M0.5,8.4h2c0.6,0,1,0.4,1,1v12c0,0.6-0.4,1-1,1h-2"/>
<path class="st0" d="M3.5,19.4c7.3,3.7,7,3.2,13.3,3.2c2.6,0,4-1.7,4.7-4.2v0l1.9-6.4v0c0.3-1.1-0.3-2.2-1.3-2.5
	c-0.2-0.1-0.4-0.1-0.6-0.1h-4.9c-1.1,0-2-0.9-2-2c0-0.2,0-0.3,0.1-0.5l0.9-3.3c0.2-0.9-0.3-1.9-1.2-2.1c-0.7-0.2-1.4,0.1-1.8,0.7
	L7.6,9C7.2,9.6,6.6,9.9,6,9.9H3.5"/>
</svg>
